<?xml version="1.0"?><svg width="493.7066666666666" height="555.8533333333332" xmlns="http://www.w3.org/2000/svg" xmlns:xlink="http://www.w3.org/1999/xlink">
 <title>Clean Fire</title>
 <metadata id="metadata3">FirefestivefireOpen Clip Art LibraryValessio Soares de BritoValessio Soares de Britoimage/svg+xmlen</metadata>
 <defs>
  <linearGradient id="linearGradient29186">
   <stop stop-color="#ffffff" offset="0" id="stop29187"/>
   <stop stop-color="#ffffff" stop-opacity="0" offset="1" id="stop29188"/>
  </linearGradient>
  <linearGradient id="linearGradient17250">
   <stop stop-color="#dc0000" offset="0" id="stop17251"/>
   <stop stop-color="#ffb200" offset="1" id="stop17252"/>
  </linearGradient>
  <linearGradient id="linearGradient26051">
   <stop stop-color="#ffffff" stop-opacity="0.449275" offset="0" id="stop26052"/>
   <stop stop-color="#ffffff" stop-opacity="0" offset="1" id="stop26053"/>
  </linearGradient>
  <linearGradient id="linearGradient14625">
   <stop stop-color="#ffffff" offset="0" id="stop14626"/>
   <stop stop-color="#ffffff" stop-opacity="0" offset="1" id="stop14627"/>
  </linearGradient>
  <linearGradient y2="0.929692" x2="0.633327" y1="-0.273425" x1="-0.483345" id="linearGradient4463" xlink:href="#linearGradient14625"/>
  <linearGradient y2="0.512884" x2="0.886215" y1="0.512884" x1="0.07436" id="linearGradient4466" xlink:href="#linearGradient26051"/>
  <linearGradient y2="0.359371" x2="0.528066" y1="1.281236" x1="0.258365" id="linearGradient4470" xlink:href="#linearGradient17250"/>
  <linearGradient y2="0.513767" x2="0.872196" y1="0.513767" x1="0.068144" id="linearGradient4473" xlink:href="#linearGradient26051"/>
  <linearGradient y2="0.929667" x2="0.157897" y1="0.085924" x1="1.828895" id="linearGradient4476" xlink:href="#linearGradient14625"/>
  <linearGradient y2="0.125014" x2="0.792708" y1="0.86719" x1="0.219525" id="linearGradient4479" xlink:href="#linearGradient17250"/>
  <linearGradient y2="0.990636" x2="0.690579" y1="0.021774" x1="-0.564235" id="linearGradient4498" xlink:href="#linearGradient29186"/>
  <linearGradient y2="0.534703" x2="0.920822" y1="0.534703" x1="0.080882" id="linearGradient4501" xlink:href="#linearGradient26051"/>
  <linearGradient y2="1.007815" x2="0.259041" y1="0.124996" x1="-0.558001" id="linearGradient4504" xlink:href="#linearGradient14625"/>
  <linearGradient y2="0.460928" x2="0.500026" y1="0.90624" x1="0.70836" id="linearGradient4512" xlink:href="#linearGradient17250"/>
  <linearGradient y2="0.242186" x2="0.45239" y1="0.914058" x1="0.214298" id="linearGradient4515" xlink:href="#linearGradient17250"/>
 </defs>
 <g>
  <title>Layer 1</title>
  <g id="svg_1"/>
  <g id="svg_2">
   <path fill="#ffd700" fill-rule="evenodd" stroke="yellow" stroke-width="2.156311" stroke-miterlimit="4" stroke-opacity="0.503817" id="path15995" d="m187.056992,150.491592c25.216248,-29.036125 18.740005,-40.987885 14.62146,-60.979469c-8.760941,-9.216034 0.207047,-22.27317 7.383713,-57.529064c-22.962097,32.132915 -52.595505,37.477673 -22.005173,118.508533z"/>
   <path fill="url(#linearGradient4466)" fill-rule="evenodd" stroke-width="2.156311" stroke-miterlimit="4" stroke-opacity="0.503817" id="path28564" d="m203.011093,25.796162c-14.682831,19.200638 -36.948715,36.918007 -35.781677,63.529736c-0.158157,22.126465 8.562531,42.769958 15.081528,63.529755c13.3116,-15.195404 27.474213,-34.492119 21.549591,-55.904037c0.040604,-8.471779 -5.89386,-15.048996 -6.064865,-23.050423c3.244003,-18.886955 9.956024,-37.13105 12.608337,-56.187943c-2.464294,2.694296 -4.928604,5.388611 -7.392914,8.082912z"/>
   <path fill="url(#linearGradient4515)" fill-rule="evenodd" stroke="yellow" stroke-width="2.156311" stroke-miterlimit="4" stroke-opacity="0.503817" id="path15991" d="m83.306984,378.296295c30.514442,90.176941 78.791039,137.998138 165.324486,143.46347c95.18689,30.514282 183.542114,-31.880737 158.49295,-129.800262c-11.385986,20.950134 -18.673004,32.336243 -38.256897,38.256866c7.742493,-54.197357 -41.900452,-63.306 -17.762146,-121.602356c16.851257,-35.979645 26.870911,-80.157288 -2.732635,-116.137009c-12.296875,40.989548 -27.326355,68.315964 -57.385376,98.374924c3.18808,-50.098297 29.603546,-90.632462 13.663208,-137.998138c2.277161,-31.880775 -50.098358,-30.969887 -50.553802,-128.433929c-33.24707,41.900452 -47.365677,74.236633 -42.35585,137.998169c-12.296875,51.464615 -42.355835,70.137726 -36.890579,125.701355c-4.554428,-30.969971 -7.742493,-57.840897 -1.366333,-80.612869c-3.643524,-28.237228 -7.287064,-52.375549 -35.524261,-72.414871c8.653336,35.068832 18.673004,87.899811 -10.930573,101.107483c-8.197891,16.851242 -49.187462,74.692139 -4.098938,165.324585c-13.207748,-7.742462 -26.415512,-10.019684 -39.623253,-23.227417z"/>
   <path fill="url(#linearGradient4498)" fill-rule="evenodd" stroke-width="2.156311" stroke-miterlimit="4" stroke-opacity="0.503817" id="path29198" d="m244.189667,44.041962c-23.645828,31.0466 -33.674133,70.694786 -30.659683,109.354965c2.252548,18.905197 -7.798553,36.505539 -14.953964,53.393692c-13.157776,25.174332 -25.060303,52.667267 -21.462418,81.753784c-1.037811,16.759949 -8.48378,-0.138123 -7.699707,-8.567902c-3.565933,-23.712982 -5.091019,-48.303635 -0.226883,-71.79422c-2.451675,-22.858704 -8.24205,-47.637543 -27.118057,-62.660309c5.605225,27.133392 12.888672,57.714706 -0.640732,83.638489c-4.854141,8.684906 -15.712143,11.059616 -17.981567,21.488556c-22.778397,39.902802 -24.494675,89.650787 -7.200989,131.894745c3.598953,9.621521 8.293381,18.806396 12.368195,28.235748c-12.691849,-7.246826 -26.619949,-12.164886 -38.886726,-20.108704c16.991783,49.753571 49.301231,98.699707 100.305428,118.062317c20.05751,8.538971 41.930328,10.123932 63.121521,13.494781c46.447906,14.500122 104.08786,4.972534 134.732147,-35.446594c18.004913,-23.384308 23.006683,-54.9422 16.877472,-83.443909c-8.110657,16.403534 -22.164825,29.697784 -40.31601,33.908813c4.1763,-21.059906 -2.182037,-42.134277 -13.062195,-60.147614c-11.745392,-19.220612 -14.506897,-43.517456 -5.133545,-64.283844c14.221863,-31.17215 24.971283,-68.894211 8.408417,-101.337143c-5.125702,-14.976883 -8.733978,-5.783173 -11.33078,4.82486c-10.829254,33.311584 -32.696564,61.649124 -57.443878,85.949112c1.713654,-33.984192 13.57074,-66.138565 18.609711,-99.545731c2.877228,-17.018677 -0.42807,-34.096481 -3.991028,-50.577347c-2.425415,-18.519165 -21.726196,-28.018982 -29.869476,-43.877571c-14.511963,-21.092079 -19.338623,-47.307354 -20.185913,-72.489037c-2.086456,2.760017 -4.172882,5.520039 -6.259338,8.28006z"/>
   <path fill="url(#linearGradient4512)" fill-rule="evenodd" stroke="yellow" stroke-width="2.156311" stroke-miterlimit="4" stroke-opacity="0.503817" id="path15990" d="m239.067291,508.096527c-72.414871,-76.513885 -84.711746,-129.800232 -36.890594,-180.354004c53.741821,-95.642258 40.534088,-155.760284 1.366318,-213.145615c36.890579,127.067535 -43.722214,209.046555 -69.682251,245.93718c-15.484924,-47.821045 -2.277191,-68.315887 19.128479,-127.067535c-41.900452,45.543945 -67.405067,100.652069 -51.920105,153.027618c28.237244,78.791016 94.731384,96.097748 137.998154,121.602356z"/>
   <path fill="#ffd700" fill-rule="evenodd" stroke="yellow" stroke-width="2.156311" stroke-miterlimit="4" stroke-opacity="0.503817" id="path15994" d="m326.949646,219.007339c-9.707092,-28.232605 -1.785675,-34.278809 6.717468,-46.612839c8.771515,-3.416306 6.083008,-15.32782 10.869476,-41.855225c7.247284,29.608688 26.703339,43.071289 -17.586945,88.468063z"/>
   <path fill="url(#linearGradient4501)" fill-rule="evenodd" stroke-width="2.156311" stroke-miterlimit="4" stroke-opacity="0.503817" id="path28563" d="m337.857758,125.896172c-2.951477,12.586113 -1.617188,26.456825 -7.097168,38.196693c-12.839752,9.808899 -18.438477,28.035538 -12.808319,43.503433c1.748016,12.964096 5.802917,15.200699 12.991089,3.362366c15.348663,-15.794022 29.709656,-38.423584 20.970123,-61.054398c-3.943268,-11.542908 -7.39621,-23.261497 -11.788544,-34.653893c-0.755707,3.548592 -1.511414,7.097191 -2.267181,10.645798z"/>
   <path fill="#ffd700" fill-rule="evenodd" stroke="yellow" stroke-width="2.156311" stroke-miterlimit="4" stroke-opacity="0.503817" id="path15993" d="m389.362274,391.959503c25.049164,-24.138336 20.039337,-34.613495 17.762146,-51.920074c-7.287018,-8.197876 1.821747,-19.12851 10.930542,-49.1875c-23.227417,26.870941 -50.553772,30.514496 -28.692688,101.107574z"/>
   <path fill="url(#linearGradient4479)" fill-rule="evenodd" stroke="yellow" stroke-width="2.156311" stroke-miterlimit="4" stroke-opacity="0.503817" id="path15992" d="m271.858917,508.096527c28.237213,-15.940399 35.979675,-66.038757 39.623199,-121.602356c6.831604,-53.741821 20.494781,-107.483673 110.671844,-116.137024c-36.890625,29.603638 -66.949646,66.038727 -53.286438,133.899261c-3.643524,98.830322 -76.969299,95.186768 -97.008606,103.840118z"/>
   <path fill="url(#linearGradient4476)" fill-rule="evenodd" stroke-width="2.156311" stroke-miterlimit="4" stroke-opacity="0.503817" id="path26056" d="m411.763092,262.506195c-38.452942,5.452087 -78.088623,28.553741 -89.374603,67.791138c-18.111481,49.0448 -8.103424,104.865448 -32.805542,151.975525c-9.381104,4.076965 -7.087708,21.566498 4.497711,18.144531c33.934784,-6.152771 66.142151,-29.727753 74.739624,-64.325958c8.292023,-24.025909 3.590118,-49.443451 2.708038,-74.121979c1.128296,-35.791016 21.851624,-68.066498 49.056976,-90.148071c4.762329,-6.859039 -3.18045,-9.16629 -8.822205,-9.315186z"/>
   <path fill="url(#linearGradient4473)" fill-rule="evenodd" stroke-width="2.156311" stroke-miterlimit="4" stroke-opacity="0.503817" id="path28562" d="m412.230469,281.244995c-15.495544,16.402588 -37.975525,31.753021 -37.433167,56.972321c-1.145325,18.068695 5.289001,35.296112 9.290802,52.639893c13.45105,-12.835663 28.740601,-29.555878 23.813416,-49.797974c-0.035065,-8.919464 -6.757446,-16.721802 -1.47995,-25.412384c5.068817,-13.761627 10.371155,-27.455261 13.891815,-41.745361c-2.694305,2.447876 -5.388611,4.895782 -8.082916,7.343506z"/>
   <path fill="url(#linearGradient4470)" fill-rule="evenodd" stroke="yellow" stroke-width="2.156311" stroke-miterlimit="4" stroke-opacity="0.503817" id="path15989" d="m222.671478,471.205963c-3.643555,-43.722168 -8.653381,-75.147583 46.454834,-114.770782c93.365021,-65.127777 47.365662,-102.929306 -10.930573,-170.789749c17.306702,67.404938 -10.475098,121.146805 -34.15799,157.126572c-15.484909,22.316589 -69.226746,67.860504 -1.366272,128.43396z"/>
   <path fill="url(#linearGradient4463)" fill-rule="evenodd" stroke-width="2.156311" stroke-miterlimit="4" stroke-opacity="0.503817" id="path26055" d="m256.790741,174.348114c10.101807,45.950958 -0.302246,94.358673 -23.555786,134.727997c-14.436691,27.753632 -42.900009,49.008972 -45.612244,82.029358c-4.350586,28.774414 16.382385,52.758057 35.594727,71.35202c7.825623,9.839905 1.118042,-13.422363 2.183167,-18.867798c-3.122345,-28.307861 1.732849,-60.070313 24.575989,-79.488251c25.431824,-24.741455 61.703918,-41.892212 73.885712,-77.452911c8.239594,-31.405731 -13.716003,-59.556259 -32.865814,-81.857147c-11.549011,-14.01355 -23.725159,-27.452179 -35.832184,-40.990479c0.542114,3.515732 1.08429,7.031464 1.626434,10.547211z"/>
   <path fill="url(#linearGradient4504)" fill-rule="evenodd" stroke-width="2.156311" stroke-miterlimit="4" stroke-opacity="0.503817" id="path26054" d="m210.898224,133.579681c0.99971,21.729645 7.177734,43.247421 4.348709,65.181107c-2.495514,51.205307 -24.994492,99.358658 -56.055099,139.442703c-5.762039,8.187317 -11.898819,16.101624 -17.836258,24.16214c-7.939651,-26.453278 -4.355362,-54.976624 6.338013,-80.079529c5.631226,-13.413239 9.583557,-27.335068 11.651398,-41.755661c-29.683517,27.078812 -50.632248,63.991013 -58.009705,103.500748c-5.97998,36.541748 6.875046,74.110809 31.118027,101.573456c30.482071,35.961334 74.310196,56.16803 116.789459,74.229828c-24.07074,-33.858276 -57.579208,-64.409485 -64.695374,-107.186829c-4.88121,-24.839172 4.899811,-49.769775 21.212357,-68.341095c18.672531,-25.653961 30.302231,-56.170776 37.210861,-86.97403c8.97229,-40.116913 1.779907,-83.494064 -20.145172,-118.282074c-5.410217,-3.955048 -15.077499,-24.73687 -11.927216,-5.470764z"/>
  </g>
 </g>
</svg>